<mxfile host="Electron" modified="2025-06-01T18:29:41.800Z" agent="Mozilla/5.0 (Windows NT 10.0; Win64; x64) AppleWebKit/537.36 (KHTML, like Gecko) draw.io/24.0.4 Chrome/120.0.6099.109 Electron/28.1.0 Safari/537.36" etag="n-Y3pxGcYycwrOYx3zdD" version="24.0.4" type="device">
  <diagram id="C5RBs43oDa-KdzZeNtuy" name="Page-1">
    <mxGraphModel dx="750" dy="478" grid="0" gridSize="10" guides="1" tooltips="1" connect="1" arrows="1" fold="1" page="1" pageScale="1" pageWidth="827" pageHeight="1169" math="0" shadow="0">
      <root>
        <mxCell id="WIyWlLk6GJQsqaUBKTNV-0" />
        <mxCell id="WIyWlLk6GJQsqaUBKTNV-1" parent="WIyWlLk6GJQsqaUBKTNV-0" />
        <mxCell id="xp57jLWlR92X92yu9Kc1-2" value="" style="edgeStyle=orthogonalEdgeStyle;rounded=0;orthogonalLoop=1;jettySize=auto;html=1;" edge="1" parent="WIyWlLk6GJQsqaUBKTNV-1" source="xp57jLWlR92X92yu9Kc1-0" target="xp57jLWlR92X92yu9Kc1-1">
          <mxGeometry relative="1" as="geometry" />
        </mxCell>
        <mxCell id="xp57jLWlR92X92yu9Kc1-0" value="NRZL_LIB" style="strokeWidth=2;html=1;shape=mxgraph.flowchart.start_1;whiteSpace=wrap;fillColor=#d5e8d4;strokeColor=#82b366;" vertex="1" parent="WIyWlLk6GJQsqaUBKTNV-1">
          <mxGeometry x="85" y="40" width="100" height="40" as="geometry" />
        </mxCell>
        <mxCell id="xp57jLWlR92X92yu9Kc1-4" value="" style="edgeStyle=orthogonalEdgeStyle;rounded=0;orthogonalLoop=1;jettySize=auto;html=1;" edge="1" parent="WIyWlLk6GJQsqaUBKTNV-1" source="xp57jLWlR92X92yu9Kc1-1" target="xp57jLWlR92X92yu9Kc1-3">
          <mxGeometry relative="1" as="geometry" />
        </mxCell>
        <mxCell id="xp57jLWlR92X92yu9Kc1-1" value="Input Char/Text" style="shape=parallelogram;perimeter=parallelogramPerimeter;whiteSpace=wrap;html=1;fixedSize=1;strokeWidth=2;fillColor=#fff2cc;strokeColor=#d6b656;" vertex="1" parent="WIyWlLk6GJQsqaUBKTNV-1">
          <mxGeometry x="75" y="100" width="120" height="40" as="geometry" />
        </mxCell>
        <mxCell id="xp57jLWlR92X92yu9Kc1-6" value="" style="edgeStyle=orthogonalEdgeStyle;rounded=0;orthogonalLoop=1;jettySize=auto;html=1;" edge="1" parent="WIyWlLk6GJQsqaUBKTNV-1" source="xp57jLWlR92X92yu9Kc1-3" target="xp57jLWlR92X92yu9Kc1-5">
          <mxGeometry relative="1" as="geometry" />
        </mxCell>
        <mxCell id="xp57jLWlR92X92yu9Kc1-3" value="Konversi ASSCI text&amp;nbsp;ke Biner" style="rounded=1;whiteSpace=wrap;html=1;strokeWidth=2;fillColor=#dae8fc;strokeColor=#6c8ebf;" vertex="1" parent="WIyWlLk6GJQsqaUBKTNV-1">
          <mxGeometry x="35" y="170" width="200" height="30" as="geometry" />
        </mxCell>
        <mxCell id="xp57jLWlR92X92yu9Kc1-8" value="" style="edgeStyle=orthogonalEdgeStyle;rounded=0;orthogonalLoop=1;jettySize=auto;html=1;" edge="1" parent="WIyWlLk6GJQsqaUBKTNV-1" source="xp57jLWlR92X92yu9Kc1-5" target="xp57jLWlR92X92yu9Kc1-7">
          <mxGeometry relative="1" as="geometry" />
        </mxCell>
        <mxCell id="xp57jLWlR92X92yu9Kc1-5" value="Enkoding NRZL" style="whiteSpace=wrap;html=1;rounded=1;strokeWidth=2;fillColor=#dae8fc;strokeColor=#6c8ebf;" vertex="1" parent="WIyWlLk6GJQsqaUBKTNV-1">
          <mxGeometry x="75" y="230" width="120" height="30" as="geometry" />
        </mxCell>
        <mxCell id="xp57jLWlR92X92yu9Kc1-10" value="" style="edgeStyle=orthogonalEdgeStyle;rounded=0;orthogonalLoop=1;jettySize=auto;html=1;" edge="1" parent="WIyWlLk6GJQsqaUBKTNV-1" source="xp57jLWlR92X92yu9Kc1-7" target="xp57jLWlR92X92yu9Kc1-9">
          <mxGeometry relative="1" as="geometry" />
        </mxCell>
        <mxCell id="xp57jLWlR92X92yu9Kc1-7" value="Dekoding NRZL" style="whiteSpace=wrap;html=1;rounded=1;strokeWidth=2;fillColor=#dae8fc;strokeColor=#6c8ebf;" vertex="1" parent="WIyWlLk6GJQsqaUBKTNV-1">
          <mxGeometry x="75" y="300" width="120" height="30" as="geometry" />
        </mxCell>
        <mxCell id="xp57jLWlR92X92yu9Kc1-12" value="" style="edgeStyle=orthogonalEdgeStyle;rounded=0;orthogonalLoop=1;jettySize=auto;html=1;" edge="1" parent="WIyWlLk6GJQsqaUBKTNV-1" source="xp57jLWlR92X92yu9Kc1-9" target="xp57jLWlR92X92yu9Kc1-11">
          <mxGeometry relative="1" as="geometry" />
        </mxCell>
        <mxCell id="xp57jLWlR92X92yu9Kc1-9" value="Membuat Plot Sinyal Digital" style="whiteSpace=wrap;html=1;rounded=1;strokeWidth=2;fillColor=#dae8fc;strokeColor=#6c8ebf;" vertex="1" parent="WIyWlLk6GJQsqaUBKTNV-1">
          <mxGeometry x="32.5" y="360" width="205" height="30" as="geometry" />
        </mxCell>
        <mxCell id="xp57jLWlR92X92yu9Kc1-22" value="" style="edgeStyle=orthogonalEdgeStyle;rounded=0;orthogonalLoop=1;jettySize=auto;html=1;" edge="1" parent="WIyWlLk6GJQsqaUBKTNV-1" source="xp57jLWlR92X92yu9Kc1-11" target="xp57jLWlR92X92yu9Kc1-21">
          <mxGeometry relative="1" as="geometry" />
        </mxCell>
        <mxCell id="xp57jLWlR92X92yu9Kc1-11" value="Membuat Plot Sinyal Enkoding NRZL" style="whiteSpace=wrap;html=1;rounded=1;strokeWidth=2;fillColor=#dae8fc;strokeColor=#6c8ebf;" vertex="1" parent="WIyWlLk6GJQsqaUBKTNV-1">
          <mxGeometry x="32.5" y="420" width="205" height="35" as="geometry" />
        </mxCell>
        <mxCell id="xp57jLWlR92X92yu9Kc1-24" value="" style="edgeStyle=orthogonalEdgeStyle;rounded=0;orthogonalLoop=1;jettySize=auto;html=1;" edge="1" parent="WIyWlLk6GJQsqaUBKTNV-1" source="xp57jLWlR92X92yu9Kc1-21" target="xp57jLWlR92X92yu9Kc1-23">
          <mxGeometry relative="1" as="geometry" />
        </mxCell>
        <mxCell id="xp57jLWlR92X92yu9Kc1-21" value="Menampilka Output Plot" style="shape=parallelogram;perimeter=parallelogramPerimeter;whiteSpace=wrap;html=1;fixedSize=1;strokeWidth=2;fillColor=#e1d5e7;strokeColor=#9673a6;" vertex="1" parent="WIyWlLk6GJQsqaUBKTNV-1">
          <mxGeometry x="30" y="480" width="210" height="40" as="geometry" />
        </mxCell>
        <mxCell id="xp57jLWlR92X92yu9Kc1-23" value="END" style="strokeWidth=2;html=1;shape=mxgraph.flowchart.start_1;whiteSpace=wrap;fillColor=#f8cecc;strokeColor=#b85450;" vertex="1" parent="WIyWlLk6GJQsqaUBKTNV-1">
          <mxGeometry x="85" y="550" width="100" height="40" as="geometry" />
        </mxCell>
        <mxCell id="xp57jLWlR92X92yu9Kc1-25" value="" style="edgeStyle=orthogonalEdgeStyle;rounded=0;orthogonalLoop=1;jettySize=auto;html=1;" edge="1" parent="WIyWlLk6GJQsqaUBKTNV-1" source="xp57jLWlR92X92yu9Kc1-26" target="xp57jLWlR92X92yu9Kc1-28">
          <mxGeometry relative="1" as="geometry" />
        </mxCell>
        <mxCell id="xp57jLWlR92X92yu9Kc1-26" value="MANC_LIB" style="strokeWidth=2;html=1;shape=mxgraph.flowchart.start_1;whiteSpace=wrap;fillColor=#d5e8d4;strokeColor=#82b366;" vertex="1" parent="WIyWlLk6GJQsqaUBKTNV-1">
          <mxGeometry x="529" y="40" width="100" height="40" as="geometry" />
        </mxCell>
        <mxCell id="xp57jLWlR92X92yu9Kc1-27" value="" style="edgeStyle=orthogonalEdgeStyle;rounded=0;orthogonalLoop=1;jettySize=auto;html=1;" edge="1" parent="WIyWlLk6GJQsqaUBKTNV-1" source="xp57jLWlR92X92yu9Kc1-28" target="xp57jLWlR92X92yu9Kc1-30">
          <mxGeometry relative="1" as="geometry" />
        </mxCell>
        <mxCell id="xp57jLWlR92X92yu9Kc1-28" value="Input Char/Text" style="shape=parallelogram;perimeter=parallelogramPerimeter;whiteSpace=wrap;html=1;fixedSize=1;strokeWidth=2;fillColor=#fff2cc;strokeColor=#d6b656;" vertex="1" parent="WIyWlLk6GJQsqaUBKTNV-1">
          <mxGeometry x="519" y="100" width="120" height="40" as="geometry" />
        </mxCell>
        <mxCell id="xp57jLWlR92X92yu9Kc1-29" value="" style="edgeStyle=orthogonalEdgeStyle;rounded=0;orthogonalLoop=1;jettySize=auto;html=1;" edge="1" parent="WIyWlLk6GJQsqaUBKTNV-1" source="xp57jLWlR92X92yu9Kc1-30" target="xp57jLWlR92X92yu9Kc1-32">
          <mxGeometry relative="1" as="geometry" />
        </mxCell>
        <mxCell id="xp57jLWlR92X92yu9Kc1-30" value="Konversi ASSCI text&amp;nbsp;ke Biner" style="rounded=1;whiteSpace=wrap;html=1;strokeWidth=2;fillColor=#dae8fc;strokeColor=#6c8ebf;" vertex="1" parent="WIyWlLk6GJQsqaUBKTNV-1">
          <mxGeometry x="479" y="170" width="200" height="30" as="geometry" />
        </mxCell>
        <mxCell id="xp57jLWlR92X92yu9Kc1-31" value="" style="edgeStyle=orthogonalEdgeStyle;rounded=0;orthogonalLoop=1;jettySize=auto;html=1;" edge="1" parent="WIyWlLk6GJQsqaUBKTNV-1" source="xp57jLWlR92X92yu9Kc1-32" target="xp57jLWlR92X92yu9Kc1-34">
          <mxGeometry relative="1" as="geometry" />
        </mxCell>
        <mxCell id="xp57jLWlR92X92yu9Kc1-32" value="Enkoding Manchester" style="whiteSpace=wrap;html=1;rounded=1;strokeWidth=2;fillColor=#dae8fc;strokeColor=#6c8ebf;" vertex="1" parent="WIyWlLk6GJQsqaUBKTNV-1">
          <mxGeometry x="519" y="230" width="120" height="30" as="geometry" />
        </mxCell>
        <mxCell id="xp57jLWlR92X92yu9Kc1-33" value="" style="edgeStyle=orthogonalEdgeStyle;rounded=0;orthogonalLoop=1;jettySize=auto;html=1;" edge="1" parent="WIyWlLk6GJQsqaUBKTNV-1" source="xp57jLWlR92X92yu9Kc1-34" target="xp57jLWlR92X92yu9Kc1-36">
          <mxGeometry relative="1" as="geometry" />
        </mxCell>
        <mxCell id="xp57jLWlR92X92yu9Kc1-34" value="Dekoding Manchester" style="whiteSpace=wrap;html=1;rounded=1;strokeWidth=2;fillColor=#dae8fc;strokeColor=#6c8ebf;" vertex="1" parent="WIyWlLk6GJQsqaUBKTNV-1">
          <mxGeometry x="519" y="300" width="120" height="30" as="geometry" />
        </mxCell>
        <mxCell id="xp57jLWlR92X92yu9Kc1-35" value="" style="edgeStyle=orthogonalEdgeStyle;rounded=0;orthogonalLoop=1;jettySize=auto;html=1;" edge="1" parent="WIyWlLk6GJQsqaUBKTNV-1" source="xp57jLWlR92X92yu9Kc1-36" target="xp57jLWlR92X92yu9Kc1-38">
          <mxGeometry relative="1" as="geometry" />
        </mxCell>
        <mxCell id="xp57jLWlR92X92yu9Kc1-36" value="Membuat Plot Sinyal Digital" style="whiteSpace=wrap;html=1;rounded=1;strokeWidth=2;fillColor=#dae8fc;strokeColor=#6c8ebf;" vertex="1" parent="WIyWlLk6GJQsqaUBKTNV-1">
          <mxGeometry x="476.5" y="360" width="205" height="30" as="geometry" />
        </mxCell>
        <mxCell id="xp57jLWlR92X92yu9Kc1-37" value="" style="edgeStyle=orthogonalEdgeStyle;rounded=0;orthogonalLoop=1;jettySize=auto;html=1;" edge="1" parent="WIyWlLk6GJQsqaUBKTNV-1" source="xp57jLWlR92X92yu9Kc1-38" target="xp57jLWlR92X92yu9Kc1-40">
          <mxGeometry relative="1" as="geometry" />
        </mxCell>
        <mxCell id="xp57jLWlR92X92yu9Kc1-38" value="Membuat Plot Sinyal Enkoding Machester" style="whiteSpace=wrap;html=1;rounded=1;strokeWidth=2;fillColor=#dae8fc;strokeColor=#6c8ebf;" vertex="1" parent="WIyWlLk6GJQsqaUBKTNV-1">
          <mxGeometry x="476.5" y="420" width="205" height="35" as="geometry" />
        </mxCell>
        <mxCell id="xp57jLWlR92X92yu9Kc1-39" value="" style="edgeStyle=orthogonalEdgeStyle;rounded=0;orthogonalLoop=1;jettySize=auto;html=1;" edge="1" parent="WIyWlLk6GJQsqaUBKTNV-1" source="xp57jLWlR92X92yu9Kc1-40" target="xp57jLWlR92X92yu9Kc1-41">
          <mxGeometry relative="1" as="geometry" />
        </mxCell>
        <mxCell id="xp57jLWlR92X92yu9Kc1-40" value="Menampilka Output Plot" style="shape=parallelogram;perimeter=parallelogramPerimeter;whiteSpace=wrap;html=1;fixedSize=1;strokeWidth=2;fillColor=#e1d5e7;strokeColor=#9673a6;" vertex="1" parent="WIyWlLk6GJQsqaUBKTNV-1">
          <mxGeometry x="474" y="480" width="210" height="40" as="geometry" />
        </mxCell>
        <mxCell id="xp57jLWlR92X92yu9Kc1-41" value="END" style="strokeWidth=2;html=1;shape=mxgraph.flowchart.start_1;whiteSpace=wrap;fillColor=#f8cecc;strokeColor=#b85450;" vertex="1" parent="WIyWlLk6GJQsqaUBKTNV-1">
          <mxGeometry x="529" y="550" width="100" height="40" as="geometry" />
        </mxCell>
        <mxCell id="xp57jLWlR92X92yu9Kc1-59" value="" style="edgeStyle=orthogonalEdgeStyle;rounded=0;orthogonalLoop=1;jettySize=auto;html=1;" edge="1" parent="WIyWlLk6GJQsqaUBKTNV-1" source="xp57jLWlR92X92yu9Kc1-43" target="xp57jLWlR92X92yu9Kc1-47">
          <mxGeometry relative="1" as="geometry" />
        </mxCell>
        <mxCell id="xp57jLWlR92X92yu9Kc1-43" value="Mulai" style="strokeWidth=2;html=1;shape=mxgraph.flowchart.start_1;whiteSpace=wrap;fillColor=#d5e8d4;strokeColor=#82b366;" vertex="1" parent="WIyWlLk6GJQsqaUBKTNV-1">
          <mxGeometry x="910" y="40" width="100" height="40" as="geometry" />
        </mxCell>
        <mxCell id="xp57jLWlR92X92yu9Kc1-61" value="" style="edgeStyle=orthogonalEdgeStyle;rounded=0;orthogonalLoop=1;jettySize=auto;html=1;" edge="1" parent="WIyWlLk6GJQsqaUBKTNV-1" source="xp57jLWlR92X92yu9Kc1-47" target="xp57jLWlR92X92yu9Kc1-60">
          <mxGeometry relative="1" as="geometry" />
        </mxCell>
        <mxCell id="xp57jLWlR92X92yu9Kc1-47" value="Menampilkan Menu&amp;nbsp;&lt;br&gt;1. NRZL Enkoder dan Dekoder&lt;div&gt;2. Machester Enkoder dan Dekoder&lt;/div&gt;&lt;div&gt;3. Selesai&lt;/div&gt;" style="rounded=1;whiteSpace=wrap;html=1;strokeWidth=2;fillColor=#dae8fc;strokeColor=#6c8ebf;align=center;" vertex="1" parent="WIyWlLk6GJQsqaUBKTNV-1">
          <mxGeometry x="860" y="100" width="200" height="70" as="geometry" />
        </mxCell>
        <mxCell id="xp57jLWlR92X92yu9Kc1-58" value="Selesai" style="strokeWidth=2;html=1;shape=mxgraph.flowchart.start_1;whiteSpace=wrap;fillColor=#f8cecc;strokeColor=#b85450;" vertex="1" parent="WIyWlLk6GJQsqaUBKTNV-1">
          <mxGeometry x="910" y="445" width="100" height="40" as="geometry" />
        </mxCell>
        <mxCell id="xp57jLWlR92X92yu9Kc1-63" value="" style="edgeStyle=orthogonalEdgeStyle;rounded=0;orthogonalLoop=1;jettySize=auto;html=1;" edge="1" parent="WIyWlLk6GJQsqaUBKTNV-1" source="xp57jLWlR92X92yu9Kc1-60" target="xp57jLWlR92X92yu9Kc1-62">
          <mxGeometry relative="1" as="geometry" />
        </mxCell>
        <mxCell id="xp57jLWlR92X92yu9Kc1-60" value="Input (1,2,3)" style="shape=parallelogram;perimeter=parallelogramPerimeter;whiteSpace=wrap;html=1;fixedSize=1;strokeWidth=2;fillColor=#fff2cc;strokeColor=#d6b656;" vertex="1" parent="WIyWlLk6GJQsqaUBKTNV-1">
          <mxGeometry x="900" y="190" width="120" height="40" as="geometry" />
        </mxCell>
        <mxCell id="xp57jLWlR92X92yu9Kc1-66" value="" style="edgeStyle=orthogonalEdgeStyle;rounded=0;orthogonalLoop=1;jettySize=auto;html=1;" edge="1" parent="WIyWlLk6GJQsqaUBKTNV-1" source="xp57jLWlR92X92yu9Kc1-62" target="xp57jLWlR92X92yu9Kc1-65">
          <mxGeometry relative="1" as="geometry" />
        </mxCell>
        <mxCell id="xp57jLWlR92X92yu9Kc1-77" value="1" style="edgeLabel;html=1;align=center;verticalAlign=middle;resizable=0;points=[];" vertex="1" connectable="0" parent="xp57jLWlR92X92yu9Kc1-66">
          <mxGeometry x="-0.3627" y="-2" relative="1" as="geometry">
            <mxPoint as="offset" />
          </mxGeometry>
        </mxCell>
        <mxCell id="xp57jLWlR92X92yu9Kc1-68" value="" style="edgeStyle=orthogonalEdgeStyle;rounded=0;orthogonalLoop=1;jettySize=auto;html=1;entryX=0;entryY=0.585;entryDx=0;entryDy=0;entryPerimeter=0;" edge="1" parent="WIyWlLk6GJQsqaUBKTNV-1" target="xp57jLWlR92X92yu9Kc1-67">
          <mxGeometry relative="1" as="geometry">
            <mxPoint x="959.9999999999998" y="329.99999999999966" as="sourcePoint" />
            <Array as="points">
              <mxPoint x="960" y="355" />
              <mxPoint x="1015" y="355" />
            </Array>
          </mxGeometry>
        </mxCell>
        <mxCell id="xp57jLWlR92X92yu9Kc1-78" value="2" style="edgeLabel;html=1;align=center;verticalAlign=middle;resizable=0;points=[];" vertex="1" connectable="0" parent="xp57jLWlR92X92yu9Kc1-68">
          <mxGeometry x="0.1021" relative="1" as="geometry">
            <mxPoint as="offset" />
          </mxGeometry>
        </mxCell>
        <mxCell id="xp57jLWlR92X92yu9Kc1-81" style="edgeStyle=orthogonalEdgeStyle;rounded=0;orthogonalLoop=1;jettySize=auto;html=1;entryX=0;entryY=0.5;entryDx=0;entryDy=0;" edge="1" parent="WIyWlLk6GJQsqaUBKTNV-1" source="xp57jLWlR92X92yu9Kc1-62" target="xp57jLWlR92X92yu9Kc1-72">
          <mxGeometry relative="1" as="geometry">
            <Array as="points">
              <mxPoint x="960" y="398" />
              <mxPoint x="1015" y="398" />
            </Array>
          </mxGeometry>
        </mxCell>
        <mxCell id="xp57jLWlR92X92yu9Kc1-82" value="3" style="edgeLabel;html=1;align=center;verticalAlign=middle;resizable=0;points=[];" vertex="1" connectable="0" parent="xp57jLWlR92X92yu9Kc1-81">
          <mxGeometry x="0.3917" y="-1" relative="1" as="geometry">
            <mxPoint as="offset" />
          </mxGeometry>
        </mxCell>
        <mxCell id="xp57jLWlR92X92yu9Kc1-62" value="Pilihan?&lt;span style=&quot;white-space: pre;&quot;&gt;&#x9;&lt;/span&gt;" style="rhombus;whiteSpace=wrap;html=1;fillColor=#ffe6cc;strokeColor=#d79b00;strokeWidth=2;" vertex="1" parent="WIyWlLk6GJQsqaUBKTNV-1">
          <mxGeometry x="920" y="250" width="80" height="80" as="geometry" />
        </mxCell>
        <mxCell id="xp57jLWlR92X92yu9Kc1-65" value="Menjalankan Program Plot NRZL_LIB" style="rounded=1;whiteSpace=wrap;html=1;fillColor=#dae8fc;strokeColor=#6c8ebf;strokeWidth=2;" vertex="1" parent="WIyWlLk6GJQsqaUBKTNV-1">
          <mxGeometry x="1035" y="277.5" width="215" height="25" as="geometry" />
        </mxCell>
        <mxCell id="xp57jLWlR92X92yu9Kc1-67" value="Menjalankan Program Plot MANC_LIB" style="rounded=1;whiteSpace=wrap;html=1;fillColor=#dae8fc;strokeColor=#6c8ebf;strokeWidth=2;" vertex="1" parent="WIyWlLk6GJQsqaUBKTNV-1">
          <mxGeometry x="1035" y="340" width="235" height="25" as="geometry" />
        </mxCell>
        <mxCell id="xp57jLWlR92X92yu9Kc1-70" style="edgeStyle=orthogonalEdgeStyle;rounded=0;orthogonalLoop=1;jettySize=auto;html=1;entryX=1;entryY=0.5;entryDx=0;entryDy=0;entryPerimeter=0;" edge="1" parent="WIyWlLk6GJQsqaUBKTNV-1" source="xp57jLWlR92X92yu9Kc1-65" target="xp57jLWlR92X92yu9Kc1-58">
          <mxGeometry relative="1" as="geometry">
            <Array as="points">
              <mxPoint x="1320" y="290" />
              <mxPoint x="1320" y="465" />
            </Array>
          </mxGeometry>
        </mxCell>
        <mxCell id="xp57jLWlR92X92yu9Kc1-72" value="Keluar dari Menu" style="rounded=1;whiteSpace=wrap;html=1;fillColor=#dae8fc;strokeColor=#6c8ebf;strokeWidth=2;" vertex="1" parent="WIyWlLk6GJQsqaUBKTNV-1">
          <mxGeometry x="1035" y="385" width="125" height="25" as="geometry" />
        </mxCell>
        <mxCell id="xp57jLWlR92X92yu9Kc1-73" style="edgeStyle=orthogonalEdgeStyle;rounded=0;orthogonalLoop=1;jettySize=auto;html=1;entryX=1;entryY=0.5;entryDx=0;entryDy=0;entryPerimeter=0;" edge="1" parent="WIyWlLk6GJQsqaUBKTNV-1" source="xp57jLWlR92X92yu9Kc1-72" target="xp57jLWlR92X92yu9Kc1-58">
          <mxGeometry relative="1" as="geometry">
            <Array as="points">
              <mxPoint x="1320" y="397" />
              <mxPoint x="1320" y="465" />
            </Array>
          </mxGeometry>
        </mxCell>
        <mxCell id="xp57jLWlR92X92yu9Kc1-74" style="edgeStyle=orthogonalEdgeStyle;rounded=0;orthogonalLoop=1;jettySize=auto;html=1;entryX=0.5;entryY=0;entryDx=0;entryDy=0;entryPerimeter=0;" edge="1" parent="WIyWlLk6GJQsqaUBKTNV-1" source="xp57jLWlR92X92yu9Kc1-62" target="xp57jLWlR92X92yu9Kc1-58">
          <mxGeometry relative="1" as="geometry" />
        </mxCell>
        <mxCell id="xp57jLWlR92X92yu9Kc1-80" value="False" style="edgeLabel;html=1;align=center;verticalAlign=middle;resizable=0;points=[];" vertex="1" connectable="0" parent="xp57jLWlR92X92yu9Kc1-74">
          <mxGeometry x="0.4484" y="1" relative="1" as="geometry">
            <mxPoint as="offset" />
          </mxGeometry>
        </mxCell>
        <mxCell id="xp57jLWlR92X92yu9Kc1-76" style="edgeStyle=orthogonalEdgeStyle;rounded=0;orthogonalLoop=1;jettySize=auto;html=1;entryX=1;entryY=0.5;entryDx=0;entryDy=0;entryPerimeter=0;" edge="1" parent="WIyWlLk6GJQsqaUBKTNV-1" source="xp57jLWlR92X92yu9Kc1-67" target="xp57jLWlR92X92yu9Kc1-58">
          <mxGeometry relative="1" as="geometry">
            <Array as="points">
              <mxPoint x="1320" y="352" />
              <mxPoint x="1320" y="465" />
            </Array>
          </mxGeometry>
        </mxCell>
      </root>
    </mxGraphModel>
  </diagram>
</mxfile>
